<?xml version="1.0" encoding="UTF-8" standalone="no"?>
<!DOCTYPE svg PUBLIC "-//W3C//DTD SVG 1.1//EN" "http://www.w3.org/Graphics/SVG/1.1/DTD/svg11.dtd">
<svg xmlns="http://www.w3.org/2000/svg" version="1.1" xmlns:dc="http://purl.org/dc/elements/1.1/" xmlns:xl="http://www.w3.org/1999/xlink" viewBox="947 808.931 847.5973 211.06905" width="847.5973" height="211.06905">
  <defs/>
  <metadata> Produced by OmniGraffle 7.18\n2021-06-17 07:32:15 +0000</metadata>
  <g id="Bluetooth_Characteristics" stroke="none" fill-opacity="1" fill="none" stroke-dasharray="none" stroke-opacity="1">
    <title>Bluetooth Characteristics</title>
    <g id="Bluetooth_Characteristics_Ebene_1">
      <title>Ebene 1</title>
      <g id="Graphic_28">
        <path d="M 1039.3893 970.051 L 1003.4907 970.051 C 1003.3812 972.9841 1001.3128 974.7889 998.6433 974.7889 L 989.6412 974.7889 C 986.874 974.7889 984.7523 972.2023 984.7893 970.051 L 949.369 970.051 C 948.066 970.051 947 971.117 947 972.42 L 947 974.7889 C 947 980.0006 951.2641 984.2648 956.4758 984.2648 L 1032.2824 984.2648 C 1037.4941 984.2648 1041.7583 980.0006 1041.7583 974.7889 L 1041.7583 972.42 C 1041.7583 971.117 1040.6922 970.051 1039.3893 970.051 Z M 1032.2824 915.565 C 1032.2824 911.6562 1029.0843 908.4581 1025.1756 908.4581 L 963.5827 908.4581 C 959.6739 908.4581 956.4758 911.6562 956.4758 915.565 L 956.4758 965.3131 L 1032.2824 965.3131 Z M 1022.8066 955.8373 L 965.9517 955.8373 L 965.9517 917.934 L 1022.8066 917.934 Z" fill="#99a46d"/>
      </g>
      <g id="Graphic_30"/>
      <g id="Graphic_31">
        <path d="M 1760.8643 864.6239 L 1760.8643 1002.1335 C 1760.8643 1010.8964 1753.7608 1018 1744.9978 1018 L 1670.9542 1018 C 1662.1912 1018 1655.0877 1010.8964 1655.0877 1002.1335 L 1655.0877 864.6239 C 1655.0877 855.8609 1662.1912 848.7574 1670.9542 848.7574 L 1744.9978 848.7574 C 1753.7608 848.7574 1760.8643 855.8609 1760.8643 864.6239 Z M 1792.5973 883.7959 L 1792.5973 887.7625 C 1792.5973 888.8579 1791.7094 889.7458 1790.614 889.7458 L 1784.664 889.7458 L 1784.664 891.7291 C 1784.664 892.8245 1783.776 893.7124 1782.6808 893.7124 L 1768.7976 893.7124 L 1768.7976 877.846 L 1782.6808 877.846 C 1783.776 877.846 1784.664 878.7339 1784.664 879.8293 L 1784.664 881.8126 L 1790.614 881.8126 C 1791.7094 881.8126 1792.5973 882.7005 1792.5973 883.7959 Z M 1792.5973 915.5289 L 1792.5973 919.4955 C 1792.5973 920.5909 1791.7094 921.4788 1790.614 921.4788 L 1784.664 921.4788 L 1784.664 923.4621 C 1784.664 924.5575 1783.776 925.4454 1782.6808 925.4454 L 1768.7976 925.4454 L 1768.7976 909.5789 L 1782.6808 909.5789 C 1783.776 909.5789 1784.664 910.4669 1784.664 911.5623 L 1784.664 913.5456 L 1790.614 913.5456 C 1791.7094 913.5456 1792.5973 914.4335 1792.5973 915.5289 Z M 1792.5973 947.2619 L 1792.5973 951.2285 C 1792.5973 952.3238 1791.7094 953.2118 1790.614 953.2118 L 1784.664 953.2118 L 1784.664 955.1951 C 1784.664 956.2905 1783.776 957.1784 1782.6808 957.1784 L 1768.7976 957.1784 L 1768.7976 941.3119 L 1782.6808 941.3119 C 1783.776 941.3119 1784.664 942.1999 1784.664 943.2952 L 1784.664 945.2786 L 1790.614 945.2786 C 1791.7094 945.2786 1792.5973 946.1665 1792.5973 947.2619 Z M 1792.5973 978.9949 L 1792.5973 982.9615 C 1792.5973 984.0568 1791.7094 984.9448 1790.614 984.9448 L 1784.664 984.9448 L 1784.664 986.9281 C 1784.664 988.0235 1783.776 988.9114 1782.6808 988.9114 L 1768.7976 988.9114 L 1768.7976 973.0449 L 1782.6808 973.0449 C 1783.776 973.0449 1784.664 973.9329 1784.664 975.0282 L 1784.664 977.0116 L 1790.614 977.0116 C 1791.7094 977.0116 1792.5973 977.8995 1792.5973 978.9949 Z M 1633.2712 973.0449 L 1647.1544 973.0449 L 1647.1544 988.9114 L 1633.2712 988.9114 C 1632.1759 988.9114 1631.288 988.0235 1631.288 986.9281 L 1631.288 984.9448 L 1625.338 984.9448 C 1624.2426 984.9448 1623.3547 984.0568 1623.3547 982.9615 L 1623.3547 978.9949 C 1623.3547 977.8995 1624.2426 977.0116 1625.338 977.0116 L 1631.288 977.0116 L 1631.288 975.0282 C 1631.288 973.9329 1632.1759 973.0449 1633.2712 973.0449 Z M 1633.2712 941.3119 L 1647.1544 941.3119 L 1647.1544 957.1784 L 1633.2712 957.1784 C 1632.1759 957.1784 1631.288 956.2905 1631.288 955.1951 L 1631.288 953.2118 L 1625.338 953.2118 C 1624.2426 953.2118 1623.3547 952.3238 1623.3547 951.2285 L 1623.3547 947.2619 C 1623.3547 946.1665 1624.2426 945.2786 1625.338 945.2786 L 1631.288 945.2786 L 1631.288 943.2952 C 1631.288 942.1999 1632.1759 941.3119 1633.2712 941.3119 Z M 1633.2712 909.5789 L 1647.1544 909.5789 L 1647.1544 925.4454 L 1633.2712 925.4454 C 1632.1759 925.4454 1631.288 924.5575 1631.288 923.4621 L 1631.288 921.4788 L 1625.338 921.4788 C 1624.2426 921.4788 1623.3547 920.5909 1623.3547 919.4955 L 1623.3547 915.5289 C 1623.3547 914.4335 1624.2426 913.5456 1625.338 913.5456 L 1631.288 913.5456 L 1631.288 911.5623 C 1631.288 910.4669 1632.1759 909.5789 1633.2712 909.5789 Z M 1633.2712 877.846 L 1647.1544 877.846 L 1647.1544 893.7124 L 1633.2712 893.7124 C 1632.1759 893.7124 1631.288 892.8245 1631.288 891.7291 L 1631.288 889.7458 L 1625.338 889.7458 C 1624.2426 889.7458 1623.3547 888.8579 1623.3547 887.7625 L 1623.3547 883.7959 C 1623.3547 882.7005 1624.2426 881.8126 1625.338 881.8126 L 1631.288 881.8126 L 1631.288 879.8293 C 1631.288 878.7339 1632.1759 877.846 1633.2712 877.846 Z" stroke="#99a46d" stroke-linecap="butt" stroke-linejoin="round" stroke-width="4"/>
      </g>
      <g id="Group_40">
        <title>End</title>
        <g id="Graphic_41">
          <circle cx="1692.818" cy="904" r="15.0000239685285" stroke="#5895a6" stroke-linecap="round" stroke-linejoin="round" stroke-width="4"/>
        </g>
        <g id="Group_90">
          <title>TX</title>
          <g id="Graphic_88">
            <path d="M 1721.366 900.3799 L 1717.718 900.3799 L 1717.718 898.9399 L 1726.55 898.9399 L 1726.55 900.3799 L 1722.902 900.3799 L 1722.902 910.2679 L 1721.366 910.2679 Z" fill="gray"/>
          </g>
          <g id="Graphic_89">
            <path d="M 1730.806 904.3159 L 1726.998 898.9399 L 1728.966 898.9399 L 1731.91 903.2919 L 1734.822 898.9399 L 1736.742 898.9399 L 1732.966 904.2999 L 1737.126 910.2679 L 1735.11 910.2679 L 1731.862 905.3559 L 1728.598 910.2679 L 1726.694 910.2679 Z" fill="gray"/>
          </g>
        </g>
      </g>
      <g id="Group_46">
        <title>End</title>
        <g id="Graphic_47">
          <circle cx="1692.818" cy="962" r="15.0000239685285" stroke="#5eb345" stroke-linecap="round" stroke-linejoin="round" stroke-width="4"/>
        </g>
        <g id="Group_93">
          <title>RX</title>
          <g id="Graphic_91">
            <path d="M 1718.702 956.94 L 1722.686 956.94 C 1723.4113 956.94 1724.0087 957.0386 1724.478 957.236 C 1724.9473 957.4333 1725.318 957.6839 1725.59 957.988 C 1725.862 958.292 1726.0513 958.6333 1726.158 959.012 C 1726.2647 959.3906 1726.318 959.7559 1726.318 960.108 C 1726.318 960.4706 1726.254 960.8199 1726.126 961.156 C 1725.998 961.492 1725.814 961.796 1725.574 962.068 C 1725.334 962.34 1725.0407 962.5693 1724.694 962.756 C 1724.3473 962.9426 1723.9607 963.0573 1723.534 963.1 L 1726.75 968.268 L 1724.83 968.268 L 1721.95 963.276 L 1720.238 963.276 L 1720.238 968.268 L 1718.702 968.268 Z M 1720.238 961.932 L 1722.254 961.932 C 1722.5527 961.932 1722.8487 961.908 1723.142 961.86 C 1723.4353 961.812 1723.6967 961.724 1723.926 961.596 C 1724.1553 961.468 1724.3393 961.284 1724.478 961.044 C 1724.6167 960.804 1724.686 960.492 1724.686 960.108 C 1724.686 959.7239 1724.6167 959.412 1724.478 959.172 C 1724.3393 958.932 1724.1553 958.748 1723.926 958.62 C 1723.6967 958.492 1723.4353 958.404 1723.142 958.356 C 1722.8487 958.308 1722.5527 958.284 1722.254 958.284 L 1720.238 958.284 Z" fill="gray"/>
          </g>
          <g id="Graphic_92">
            <path d="M 1731.102 962.316 L 1727.294 956.94 L 1729.262 956.94 L 1732.206 961.292 L 1735.118 956.94 L 1737.038 956.94 L 1733.262 962.3 L 1737.422 968.268 L 1735.406 968.268 L 1732.158 963.356 L 1728.894 968.268 L 1726.99 968.268 Z" fill="gray"/>
          </g>
        </g>
      </g>
      <g id="Graphic_50">
        <path d="M 1699.2453 947.476 L 1704.0737 947.476 L 1704.0737 947.476 L 1709.1595 947.476 L 1701.6595 947.476 L 1694.1595 947.476 L 1699.2453 947.476 Z" fill="#e5702a"/>
      </g>
      <g id="Graphic_55">
        <path d="M 1677.818 964.4142 L 1677.818 959.5858 L 1069.8116 959.5858 L 1069.8116 954.5 L 1054.8378 962 L 1069.8116 969.5 L 1069.8116 964.4142 Z" fill="#5eb345"/>
      </g>
      <g id="Graphic_58">
        <path d="M 1054.8378 906.4142 L 1054.8378 901.5858 L 1662.8442 901.5858 L 1662.8442 896.5 L 1677.818 904 L 1662.8442 911.5 L 1662.8442 906.4142 Z" fill="#5895a6"/>
      </g>
      <g id="Graphic_59"/>
      <g id="Group_66">
        <g id="Graphic_60">
          <path d="M 979.3991 883.9449 C 978.9991 883.4249 978.4925 883.0249 977.8791 882.7449 C 977.2658 882.4649 976.6325 882.3249 975.9791 882.3249 C 975.1791 882.3249 974.4558 882.4749 973.8091 882.7749 C 973.1625 883.0749 972.6091 883.4849 972.1491 884.0049 C 971.6891 884.5249 971.3325 885.1349 971.0791 885.8349 C 970.8258 886.5349 970.6991 887.2849 970.6991 888.0849 C 970.6991 888.8316 970.8191 889.5383 971.0591 890.2049 C 971.2991 890.8716 971.6458 891.4583 972.0991 891.9649 C 972.5525 892.4716 973.1058 892.8716 973.7591 893.1649 C 974.4125 893.4583 975.1525 893.6049 975.9791 893.6049 C 976.7925 893.6049 977.5058 893.4383 978.1191 893.1049 C 978.7325 892.7716 979.2525 892.3049 979.6791 891.7049 L 981.2991 892.9249 C 981.1925 893.0716 981.0058 893.2816 980.7391 893.5549 C 980.4725 893.8283 980.1191 894.1016 979.6791 894.3749 C 979.2391 894.6483 978.7091 894.8883 978.0891 895.0949 C 977.4691 895.3016 976.7525 895.4049 975.9391 895.4049 C 974.8191 895.4049 973.8091 895.1916 972.9091 894.7649 C 972.0091 894.3383 971.2425 893.7783 970.6091 893.0849 C 969.9758 892.3916 969.4925 891.6083 969.1591 890.7349 C 968.8258 889.8616 968.6591 888.9783 968.6591 888.0849 C 968.6591 886.9916 968.8391 885.9816 969.1991 885.0549 C 969.5591 884.1283 970.0625 883.3283 970.7091 882.6549 C 971.3558 881.9816 972.1325 881.4583 973.0391 881.0849 C 973.9458 880.7116 974.9458 880.5249 976.0391 880.5249 C 976.9725 880.5249 977.8891 880.7049 978.7891 881.0649 C 979.6891 881.4249 980.4258 881.9783 980.9991 882.7249 Z" fill="gray"/>
        </g>
        <g id="Graphic_61">
          <rect x="983.2991" y="879.9249" width="1.8" height="15.12" fill="gray"/>
        </g>
        <g id="Graphic_62">
          <path d="M 988.0991 885.5649 L 989.8991 885.5649 L 989.8991 895.0449 L 988.0991 895.0449 Z M 987.6791 882.1649 C 987.6791 881.8049 987.8091 881.4949 988.0691 881.2349 C 988.3291 880.9749 988.6391 880.8449 988.9991 880.8449 C 989.3591 880.8449 989.6691 880.9749 989.9291 881.2349 C 990.1891 881.4949 990.3191 881.8049 990.3191 882.1649 C 990.3191 882.5249 990.1891 882.8349 989.9291 883.0949 C 989.6691 883.3549 989.3591 883.4849 988.9991 883.4849 C 988.6391 883.4849 988.3291 883.3549 988.0691 883.0949 C 987.8091 882.8349 987.6791 882.5249 987.6791 882.1649 Z" fill="gray"/>
        </g>
        <g id="Graphic_63">
          <path d="M 994.1191 890.9649 C 994.1191 891.3783 994.2091 891.7549 994.3891 892.0949 C 994.5691 892.4349 994.8058 892.7249 995.0991 892.9649 C 995.3925 893.2049 995.7325 893.3916 996.1191 893.5249 C 996.5058 893.6583 996.9058 893.7249 997.3191 893.7249 C 997.8791 893.7249 998.3658 893.5949 998.7791 893.3349 C 999.1925 893.0749 999.5725 892.7316 999.9191 892.3049 L 1001.2791 893.3449 C 1000.2791 894.6383 998.8791 895.2849 997.0791 895.2849 C 996.3325 895.2849 995.6558 895.1583 995.0491 894.9049 C 994.4425 894.6516 993.9291 894.3016 993.5091 893.8549 C 993.0891 893.4083 992.7658 892.8816 992.5391 892.2749 C 992.3125 891.6683 992.1991 891.0116 992.1991 890.3049 C 992.1991 889.5983 992.3225 888.9416 992.5691 888.3349 C 992.8158 887.7283 993.1558 887.2016 993.5891 886.7549 C 994.0225 886.3083 994.5391 885.9583 995.1391 885.7049 C 995.7391 885.4516 996.3925 885.3249 997.0991 885.3249 C 997.9391 885.3249 998.6491 885.4716 999.2291 885.7649 C 999.8091 886.0583 1000.2858 886.4416 1000.6591 886.9149 C 1001.0325 887.3883 1001.3025 887.9216 1001.4691 888.5149 C 1001.6358 889.1083 1001.7191 889.7116 1001.7191 890.3249 L 1001.7191 890.9649 Z M 999.7991 889.5249 C 999.7858 889.1249 999.7225 888.7583 999.6091 888.4249 C 999.4958 888.0916 999.3258 887.8016 999.0991 887.5549 C 998.8725 887.3083 998.5891 887.1149 998.2491 886.9749 C 997.9091 886.8349 997.5125 886.7649 997.0591 886.7649 C 996.6191 886.7649 996.2158 886.8483 995.8491 887.0149 C 995.4825 887.1816 995.1725 887.3983 994.9191 887.6649 C 994.6658 887.9316 994.4691 888.2283 994.3291 888.5549 C 994.1891 888.8816 994.1191 889.2049 994.1191 889.5249 Z" fill="gray"/>
        </g>
        <g id="Graphic_64">
          <path d="M 1003.8791 885.5649 L 1005.6791 885.5649 L 1005.6791 887.0249 L 1005.7191 887.0249 C 1005.9458 886.5183 1006.3391 886.1083 1006.8991 885.7949 C 1007.4591 885.4816 1008.1058 885.3249 1008.8391 885.3249 C 1009.2925 885.3249 1009.7291 885.3949 1010.1491 885.5349 C 1010.5691 885.6749 1010.9358 885.8916 1011.2491 886.1849 C 1011.5625 886.4783 1011.8125 886.8549 1011.9991 887.3149 C 1012.1858 887.7749 1012.2791 888.3183 1012.2791 888.9449 L 1012.2791 895.0449 L 1010.4791 895.0449 L 1010.4791 889.4449 C 1010.4791 889.0049 1010.4191 888.6283 1010.2991 888.3149 C 1010.1791 888.0016 1010.0191 887.7483 1009.8191 887.5549 C 1009.6191 887.3616 1009.3891 887.2216 1009.1291 887.1349 C 1008.8691 887.0483 1008.5991 887.0049 1008.3191 887.0049 C 1007.9458 887.0049 1007.5991 887.0649 1007.2791 887.1849 C 1006.9591 887.3049 1006.6791 887.4949 1006.4391 887.7549 C 1006.1991 888.0149 1006.0125 888.3449 1005.8791 888.7449 C 1005.7458 889.1449 1005.6791 889.6183 1005.6791 890.1649 L 1005.6791 895.0449 L 1003.8791 895.0449 Z" fill="gray"/>
        </g>
        <g id="Graphic_65">
          <path d="M 1020.0791 887.1249 L 1017.4991 887.1249 L 1017.4991 891.4249 C 1017.4991 891.6916 1017.5058 891.9549 1017.5191 892.2149 C 1017.5325 892.4749 1017.5825 892.7083 1017.6691 892.9149 C 1017.7558 893.1216 1017.8891 893.2883 1018.0691 893.4149 C 1018.2491 893.5416 1018.5125 893.6049 1018.8591 893.6049 C 1019.0725 893.6049 1019.2925 893.5849 1019.5191 893.5449 C 1019.7458 893.5049 1019.9525 893.4316 1020.1391 893.3249 L 1020.1391 894.9649 C 1019.9258 895.0849 1019.6491 895.1683 1019.3091 895.2149 C 1018.9691 895.2616 1018.7058 895.2849 1018.5191 895.2849 C 1017.8258 895.2849 1017.2891 895.1883 1016.9091 894.9949 C 1016.5291 894.8016 1016.2491 894.5516 1016.0691 894.2449 C 1015.8891 893.9383 1015.7825 893.5949 1015.7491 893.2149 C 1015.7158 892.8349 1015.6991 892.4516 1015.6991 892.0649 L 1015.6991 887.1249 L 1013.6191 887.1249 L 1013.6191 885.5649 L 1015.6991 885.5649 L 1015.6991 882.9049 L 1017.4991 882.9049 L 1017.4991 885.5649 L 1020.0791 885.5649 Z" fill="gray"/>
        </g>
      </g>
      <g id="Group_74">
        <g id="Graphic_67">
          <path d="M 1680.958 827.4242 L 1680.958 834.4042 C 1680.6113 834.6175 1680.218 834.8042 1679.778 834.9642 C 1679.338 835.1242 1678.8813 835.2608 1678.408 835.3742 C 1677.9347 835.4875 1677.4547 835.5708 1676.968 835.6242 C 1676.4813 835.6775 1676.0247 835.7042 1675.598 835.7042 C 1674.398 835.7042 1673.328 835.5042 1672.388 835.1042 C 1671.448 834.7042 1670.6547 834.1642 1670.008 833.4842 C 1669.3613 832.8042 1668.868 832.0142 1668.528 831.1142 C 1668.188 830.2142 1668.018 829.2642 1668.018 828.2642 C 1668.018 827.2108 1668.2013 826.2308 1668.568 825.3242 C 1668.9347 824.4175 1669.4413 823.6308 1670.088 822.9642 C 1670.7347 822.2975 1671.5113 821.7742 1672.418 821.3942 C 1673.3247 821.0142 1674.318 820.8242 1675.398 820.8242 C 1676.7047 820.8242 1677.7713 820.9875 1678.598 821.3142 C 1679.4247 821.6408 1680.118 822.0908 1680.678 822.6642 L 1679.318 824.1242 C 1678.7313 823.5642 1678.1113 823.1742 1677.458 822.9542 C 1676.8047 822.7342 1676.118 822.6242 1675.398 822.6242 C 1674.5847 822.6242 1673.8513 822.7742 1673.198 823.0742 C 1672.5447 823.3742 1671.9847 823.7775 1671.518 824.2842 C 1671.0513 824.7908 1670.6913 825.3875 1670.438 826.0742 C 1670.1847 826.7608 1670.058 827.4908 1670.058 828.2642 C 1670.058 829.0642 1670.198 829.8075 1670.478 830.4942 C 1670.758 831.1808 1671.1447 831.7775 1671.638 832.2842 C 1672.1313 832.7908 1672.7113 833.1875 1673.378 833.4742 C 1674.0447 833.7608 1674.7713 833.9042 1675.558 833.9042 C 1676.238 833.9042 1676.8813 833.8408 1677.488 833.7142 C 1678.0947 833.5875 1678.6113 833.4042 1679.038 833.1642 L 1679.038 829.2242 L 1675.898 829.2242 L 1675.898 827.4242 Z" fill="gray"/>
        </g>
        <g id="Graphic_68">
          <path d="M 1684.038 827.0242 C 1684.5447 826.5575 1685.1313 826.2075 1685.798 825.9742 C 1686.4647 825.7408 1687.1313 825.6242 1687.798 825.6242 C 1688.4913 825.6242 1689.088 825.7108 1689.588 825.8842 C 1690.088 826.0575 1690.498 826.2908 1690.818 826.5842 C 1691.138 826.8775 1691.3747 827.2142 1691.528 827.5942 C 1691.6813 827.9742 1691.758 828.3708 1691.758 828.7842 L 1691.758 833.6242 C 1691.758 833.9575 1691.7647 834.2642 1691.778 834.5442 C 1691.7913 834.8242 1691.8113 835.0908 1691.838 835.3442 L 1690.238 835.3442 C 1690.198 834.8642 1690.178 834.3842 1690.178 833.9042 L 1690.138 833.9042 C 1689.738 834.5175 1689.2647 834.9508 1688.718 835.2042 C 1688.1713 835.4575 1687.538 835.5842 1686.818 835.5842 C 1686.378 835.5842 1685.958 835.5242 1685.558 835.4042 C 1685.158 835.2842 1684.808 835.1042 1684.508 834.8642 C 1684.208 834.6242 1683.9713 834.3275 1683.798 833.9742 C 1683.6247 833.6208 1683.538 833.2108 1683.538 832.7442 C 1683.538 832.1308 1683.6747 831.6175 1683.948 831.2042 C 1684.2213 830.7908 1684.5947 830.4542 1685.068 830.1942 C 1685.5413 829.9342 1686.0947 829.7475 1686.728 829.6342 C 1687.3613 829.5208 1688.038 829.4642 1688.758 829.4642 L 1690.078 829.4642 L 1690.078 829.0642 C 1690.078 828.8242 1690.0313 828.5842 1689.938 828.3442 C 1689.8447 828.1042 1689.7047 827.8875 1689.518 827.6942 C 1689.3313 827.5008 1689.098 827.3475 1688.818 827.2342 C 1688.538 827.1208 1688.2047 827.0642 1687.818 827.0642 C 1687.4713 827.0642 1687.168 827.0975 1686.908 827.1642 C 1686.648 827.2308 1686.4113 827.3142 1686.198 827.4142 C 1685.9847 827.5142 1685.7913 827.6308 1685.618 827.7642 C 1685.4447 827.8975 1685.278 828.0242 1685.118 828.1442 Z M 1689.118 830.7842 C 1688.6913 830.7842 1688.2547 830.8075 1687.808 830.8542 C 1687.3613 830.9008 1686.9547 830.9908 1686.588 831.1242 C 1686.2213 831.2575 1685.9213 831.4442 1685.688 831.6842 C 1685.4547 831.9242 1685.338 832.2308 1685.338 832.6042 C 1685.338 833.1508 1685.5213 833.5442 1685.888 833.7842 C 1686.2547 834.0242 1686.7513 834.1442 1687.378 834.1442 C 1687.8713 834.1442 1688.2913 834.0608 1688.638 833.8942 C 1688.9847 833.7275 1689.2647 833.5108 1689.478 833.2442 C 1689.6913 832.9775 1689.8447 832.6808 1689.938 832.3542 C 1690.0313 832.0275 1690.078 831.7042 1690.078 831.3842 L 1690.078 830.7842 Z" fill="gray"/>
        </g>
        <g id="Graphic_69">
          <path d="M 1699.458 827.4242 L 1696.878 827.4242 L 1696.878 831.7242 C 1696.878 831.9908 1696.8847 832.2542 1696.898 832.5142 C 1696.9113 832.7742 1696.9613 833.0075 1697.048 833.2142 C 1697.1347 833.4208 1697.268 833.5875 1697.448 833.7142 C 1697.628 833.8408 1697.8913 833.9042 1698.238 833.9042 C 1698.4513 833.9042 1698.6713 833.8842 1698.898 833.8442 C 1699.1247 833.8042 1699.3313 833.7308 1699.518 833.6242 L 1699.518 835.2642 C 1699.3047 835.3842 1699.028 835.4675 1698.688 835.5142 C 1698.348 835.5608 1698.0847 835.5842 1697.898 835.5842 C 1697.2047 835.5842 1696.668 835.4875 1696.288 835.2942 C 1695.908 835.1008 1695.628 834.8508 1695.448 834.5442 C 1695.268 834.2375 1695.1613 833.8942 1695.128 833.5142 C 1695.0947 833.1342 1695.078 832.7508 1695.078 832.3642 L 1695.078 827.4242 L 1692.998 827.4242 L 1692.998 825.8642 L 1695.078 825.8642 L 1695.078 823.2042 L 1696.878 823.2042 L 1696.878 825.8642 L 1699.458 825.8642 Z" fill="gray"/>
        </g>
        <g id="Graphic_70">
          <path d="M 1703.138 831.2642 C 1703.138 831.6775 1703.228 832.0542 1703.408 832.3942 C 1703.588 832.7342 1703.8247 833.0242 1704.118 833.2642 C 1704.4113 833.5042 1704.7513 833.6908 1705.138 833.8242 C 1705.5247 833.9575 1705.9247 834.0242 1706.338 834.0242 C 1706.898 834.0242 1707.3847 833.8942 1707.798 833.6342 C 1708.2113 833.3742 1708.5913 833.0308 1708.938 832.6042 L 1710.298 833.6442 C 1709.298 834.9375 1707.898 835.5842 1706.098 835.5842 C 1705.3513 835.5842 1704.6747 835.4575 1704.068 835.2042 C 1703.4613 834.9508 1702.948 834.6008 1702.528 834.1542 C 1702.108 833.7075 1701.7847 833.1808 1701.558 832.5742 C 1701.3313 831.9675 1701.218 831.3108 1701.218 830.6042 C 1701.218 829.8975 1701.3413 829.2408 1701.588 828.6342 C 1701.8347 828.0275 1702.1747 827.5008 1702.608 827.0542 C 1703.0413 826.6075 1703.558 826.2575 1704.158 826.0042 C 1704.758 825.7508 1705.4113 825.6242 1706.118 825.6242 C 1706.958 825.6242 1707.668 825.7708 1708.248 826.0642 C 1708.828 826.3575 1709.3047 826.7408 1709.678 827.2142 C 1710.0513 827.6875 1710.3213 828.2208 1710.488 828.8142 C 1710.6547 829.4075 1710.738 830.0108 1710.738 830.6242 L 1710.738 831.2642 Z M 1708.818 829.8242 C 1708.8047 829.4242 1708.7413 829.0575 1708.628 828.7242 C 1708.5147 828.3908 1708.3447 828.1008 1708.118 827.8542 C 1707.8913 827.6075 1707.608 827.4142 1707.268 827.2742 C 1706.928 827.1342 1706.5313 827.0642 1706.078 827.0642 C 1705.638 827.0642 1705.2347 827.1475 1704.868 827.3142 C 1704.5013 827.4808 1704.1913 827.6975 1703.938 827.9642 C 1703.6847 828.2308 1703.488 828.5275 1703.348 828.8542 C 1703.208 829.1808 1703.138 829.5042 1703.138 829.8242 Z" fill="gray"/>
        </g>
        <g id="Graphic_71">
          <path d="M 1711.758 825.8642 L 1713.778 825.8642 L 1715.918 832.9442 L 1715.958 832.9442 L 1718.218 825.8642 L 1720.118 825.8642 L 1722.518 832.9442 L 1722.558 832.9442 L 1724.598 825.8642 L 1726.498 825.8642 L 1723.438 835.3442 L 1721.618 835.3442 L 1719.118 828.2642 L 1719.078 828.2642 L 1716.818 835.3442 L 1714.878 835.3442 Z" fill="gray"/>
        </g>
        <g id="Graphic_72">
          <path d="M 1728.118 827.0242 C 1728.6247 826.5575 1729.2113 826.2075 1729.878 825.9742 C 1730.5447 825.7408 1731.2113 825.6242 1731.878 825.6242 C 1732.5713 825.6242 1733.168 825.7108 1733.668 825.8842 C 1734.168 826.0575 1734.578 826.2908 1734.898 826.5842 C 1735.218 826.8775 1735.4547 827.2142 1735.608 827.5942 C 1735.7613 827.9742 1735.838 828.3708 1735.838 828.7842 L 1735.838 833.6242 C 1735.838 833.9575 1735.8447 834.2642 1735.858 834.5442 C 1735.8713 834.8242 1735.8913 835.0908 1735.918 835.3442 L 1734.318 835.3442 C 1734.278 834.8642 1734.258 834.3842 1734.258 833.9042 L 1734.218 833.9042 C 1733.818 834.5175 1733.3447 834.9508 1732.798 835.2042 C 1732.2513 835.4575 1731.618 835.5842 1730.898 835.5842 C 1730.458 835.5842 1730.038 835.5242 1729.638 835.4042 C 1729.238 835.2842 1728.888 835.1042 1728.588 834.8642 C 1728.288 834.6242 1728.0513 834.3275 1727.878 833.9742 C 1727.7047 833.6208 1727.618 833.2108 1727.618 832.7442 C 1727.618 832.1308 1727.7547 831.6175 1728.028 831.2042 C 1728.3013 830.7908 1728.6747 830.4542 1729.148 830.1942 C 1729.6213 829.9342 1730.1747 829.7475 1730.808 829.6342 C 1731.4413 829.5208 1732.118 829.4642 1732.838 829.4642 L 1734.158 829.4642 L 1734.158 829.0642 C 1734.158 828.8242 1734.1113 828.5842 1734.018 828.3442 C 1733.9247 828.1042 1733.7847 827.8875 1733.598 827.6942 C 1733.4113 827.5008 1733.178 827.3475 1732.898 827.2342 C 1732.618 827.1208 1732.2847 827.0642 1731.898 827.0642 C 1731.5513 827.0642 1731.248 827.0975 1730.988 827.1642 C 1730.728 827.2308 1730.4913 827.3142 1730.278 827.4142 C 1730.0647 827.5142 1729.8713 827.6308 1729.698 827.7642 C 1729.5247 827.8975 1729.358 828.0242 1729.198 828.1442 Z M 1733.198 830.7842 C 1732.7713 830.7842 1732.3347 830.8075 1731.888 830.8542 C 1731.4413 830.9008 1731.0347 830.9908 1730.668 831.1242 C 1730.3013 831.2575 1730.0013 831.4442 1729.768 831.6842 C 1729.5347 831.9242 1729.418 832.2308 1729.418 832.6042 C 1729.418 833.1508 1729.6013 833.5442 1729.968 833.7842 C 1730.3347 834.0242 1730.8313 834.1442 1731.458 834.1442 C 1731.9513 834.1442 1732.3713 834.0608 1732.718 833.8942 C 1733.0647 833.7275 1733.3447 833.5108 1733.558 833.2442 C 1733.7713 832.9775 1733.9247 832.6808 1734.018 832.3542 C 1734.1113 832.0275 1734.158 831.7042 1734.158 831.3842 L 1734.158 830.7842 Z" fill="gray"/>
        </g>
        <g id="Graphic_73">
          <path d="M 1737.318 825.8642 L 1739.398 825.8642 L 1742.218 833.2642 L 1742.258 833.2642 L 1744.938 825.8642 L 1746.878 825.8642 L 1742.378 837.3842 C 1742.218 837.7975 1742.0513 838.1742 1741.878 838.5142 C 1741.7047 838.8542 1741.498 839.1442 1741.258 839.3842 C 1741.018 839.6242 1740.728 839.8108 1740.388 839.9442 C 1740.048 840.0775 1739.6313 840.1442 1739.138 840.1442 C 1738.8713 840.1442 1738.6013 840.1275 1738.328 840.0942 C 1738.0547 840.0608 1737.7913 839.9908 1737.538 839.8842 L 1737.758 838.2442 C 1738.118 838.3908 1738.478 838.4642 1738.838 838.4642 C 1739.118 838.4642 1739.3547 838.4275 1739.548 838.3542 C 1739.7413 838.2808 1739.908 838.1742 1740.048 838.0342 C 1740.188 837.8942 1740.3047 837.7308 1740.398 837.5442 C 1740.4913 837.3575 1740.5847 837.1442 1740.678 836.9042 L 1741.258 835.4042 Z" fill="gray"/>
        </g>
      </g>
      <g id="Group_80">
        <title>write</title>
        <g id="Graphic_75">
          <path d="M 1362.292 886.608 L 1363.348 886.608 L 1365.14 892.8 L 1365.172 892.8 L 1367.236 886.608 L 1368.148 886.608 L 1370.34 892.8 L 1370.372 892.8 L 1372.116 886.608 L 1373.076 886.608 L 1370.9 894 L 1369.908 894 L 1367.7 887.952 L 1367.668 887.952 L 1365.604 894 L 1364.612 894 Z" fill="#5895a6"/>
        </g>
        <g id="Graphic_76">
          <path d="M 1374.596 888.688 C 1374.596 888.5493 1374.5907 888.3813 1374.58 888.184 C 1374.5693 887.9867 1374.5613 887.7867 1374.556 887.584 C 1374.5507 887.3813 1374.5427 887.192 1374.532 887.016 C 1374.5213 886.84 1374.516 886.704 1374.516 886.608 L 1375.476 886.608 C 1375.4867 886.8853 1375.4947 887.152 1375.5 887.408 C 1375.5053 887.664 1375.5187 887.8293 1375.54 887.904 C 1375.7853 887.4667 1376.1 887.1093 1376.484 886.832 C 1376.868 886.5547 1377.3373 886.416 1377.892 886.416 C 1377.988 886.416 1378.0813 886.424 1378.172 886.44 C 1378.2627 886.456 1378.356 886.4747 1378.452 886.496 L 1378.34 887.44 C 1378.212 887.3973 1378.0893 887.376 1377.972 887.376 C 1377.556 887.376 1377.196 887.4427 1376.892 887.576 C 1376.588 887.7093 1376.3373 887.8933 1376.14 888.128 C 1375.9427 888.3627 1375.796 888.6373 1375.7 888.952 C 1375.604 889.2667 1375.556 889.6053 1375.556 889.968 L 1375.556 894 L 1374.596 894 Z" fill="#5895a6"/>
        </g>
        <g id="Graphic_77">
          <path d="M 1380.084 886.608 L 1381.044 886.608 L 1381.044 894 L 1380.084 894 Z M 1379.844 883.68 C 1379.844 883.4773 1379.9133 883.3067 1380.052 883.168 C 1380.1907 883.0293 1380.3613 882.96 1380.564 882.96 C 1380.7667 882.96 1380.9373 883.0293 1381.076 883.168 C 1381.2147 883.3067 1381.284 883.4773 1381.284 883.68 C 1381.284 883.8827 1381.2147 884.0533 1381.076 884.192 C 1380.9373 884.3307 1380.7667 884.4 1380.564 884.4 C 1380.3613 884.4 1380.1907 884.3307 1380.052 884.192 C 1379.9133 884.0533 1379.844 883.8827 1379.844 883.68 Z" fill="#5895a6"/>
        </g>
        <g id="Graphic_78">
          <path d="M 1387.38 887.472 L 1385.268 887.472 L 1385.268 892.288 C 1385.268 892.6187 1385.3587 892.8747 1385.54 893.056 C 1385.7213 893.2373 1385.972 893.328 1386.292 893.328 C 1386.4733 893.328 1386.6573 893.304 1386.844 893.256 C 1387.0307 893.208 1387.2093 893.1467 1387.38 893.072 L 1387.46 893.936 C 1387.2787 894 1387.0707 894.0587 1386.836 894.112 C 1386.6013 894.1653 1386.3933 894.192 1386.212 894.192 C 1385.8707 894.192 1385.5773 894.1413 1385.332 894.04 C 1385.0867 893.9387 1384.8893 893.8027 1384.74 893.632 C 1384.5907 893.4613 1384.4813 893.2613 1384.412 893.032 C 1384.3427 892.8027 1384.308 892.5547 1384.308 892.288 L 1384.308 887.472 L 1382.708 887.472 L 1382.708 886.608 L 1384.308 886.608 L 1384.308 884.48 L 1385.268 884.48 L 1385.268 886.608 L 1387.38 886.608 Z" fill="#5895a6"/>
        </g>
        <g id="Graphic_79">
          <path d="M 1395.62 892.608 C 1395.2467 893.1733 1394.7853 893.5787 1394.236 893.824 C 1393.6867 894.0693 1393.0813 894.192 1392.42 894.192 C 1391.8547 894.192 1391.3427 894.096 1390.884 893.904 C 1390.4253 893.712 1390.0307 893.4427 1389.7 893.096 C 1389.3693 892.7493 1389.116 892.3387 1388.94 891.864 C 1388.764 891.3893 1388.676 890.864 1388.676 890.288 C 1388.676 889.7333 1388.7667 889.2213 1388.948 888.752 C 1389.1293 888.2827 1389.3853 887.8747 1389.716 887.528 C 1390.0467 887.1813 1390.436 886.9093 1390.884 886.712 C 1391.332 886.5147 1391.828 886.416 1392.372 886.416 C 1392.9373 886.416 1393.436 886.5147 1393.868 886.712 C 1394.3 886.9093 1394.6627 887.1707 1394.956 887.496 C 1395.2493 887.8213 1395.4707 888.192 1395.62 888.608 C 1395.7693 889.024 1395.844 889.4453 1395.844 889.872 L 1395.844 890.544 L 1389.636 890.544 C 1389.636 890.7467 1389.676 891.0053 1389.756 891.32 C 1389.836 891.6347 1389.9827 891.9413 1390.196 892.24 C 1390.4093 892.5387 1390.6947 892.7947 1391.052 893.008 C 1391.4093 893.2213 1391.8707 893.328 1392.436 893.328 C 1392.9267 893.328 1393.4013 893.2107 1393.86 892.976 C 1394.3187 892.7413 1394.6707 892.4213 1394.916 892.016 Z M 1394.884 889.68 C 1394.884 889.3493 1394.8173 889.04 1394.684 888.752 C 1394.5507 888.464 1394.3693 888.2107 1394.14 887.992 C 1393.9107 887.7733 1393.6387 887.6 1393.324 887.472 C 1393.0093 887.344 1392.676 887.28 1392.324 887.28 C 1391.8013 887.28 1391.3667 887.3867 1391.02 887.6 C 1390.6733 887.8133 1390.3987 888.0587 1390.196 888.336 C 1389.9933 888.6133 1389.8493 888.8827 1389.764 889.144 C 1389.6787 889.4053 1389.636 889.584 1389.636 889.68 Z" fill="#5895a6"/>
        </g>
      </g>
      <g id="Group_87">
        <title>notify</title>
        <g id="Graphic_81">
          <path d="M 1361.412 948.688 C 1361.412 948.5493 1361.4067 948.3813 1361.396 948.184 C 1361.3853 947.9867 1361.3773 947.7867 1361.372 947.584 C 1361.3667 947.3813 1361.3587 947.192 1361.348 947.016 C 1361.3373 946.84 1361.332 946.704 1361.332 946.608 L 1362.292 946.608 C 1362.3027 946.8853 1362.3107 947.152 1362.316 947.408 C 1362.3213 947.664 1362.3347 947.8293 1362.356 947.904 L 1362.404 947.904 C 1362.596 947.4987 1362.916 947.1493 1363.364 946.856 C 1363.812 946.5627 1364.3347 946.416 1364.932 946.416 C 1365.508 946.416 1365.9773 946.5067 1366.34 946.688 C 1366.7027 946.8693 1366.988 947.1067 1367.196 947.4 C 1367.404 947.6933 1367.548 948.032 1367.628 948.416 C 1367.708 948.8 1367.748 949.1947 1367.748 949.6 L 1367.748 954 L 1366.788 954 L 1366.788 949.648 C 1366.788 949.3493 1366.7613 949.0587 1366.708 948.776 C 1366.6547 948.4933 1366.5613 948.24 1366.428 948.016 C 1366.2947 947.792 1366.108 947.6133 1365.868 947.48 C 1365.628 947.3467 1365.316 947.28 1364.932 947.28 C 1364.58 947.28 1364.2467 947.3413 1363.932 947.464 C 1363.6173 947.5867 1363.3453 947.7733 1363.116 948.024 C 1362.8867 948.2747 1362.7053 948.5893 1362.572 948.968 C 1362.4387 949.3467 1362.372 949.792 1362.372 950.304 L 1362.372 954 L 1361.412 954 Z" fill="#5eb345"/>
        </g>
        <g id="Graphic_82">
          <path d="M 1369.892 950.304 C 1369.892 949.7387 1369.988 949.2187 1370.18 948.744 C 1370.372 948.2693 1370.6387 947.8587 1370.98 947.512 C 1371.3213 947.1653 1371.732 946.896 1372.212 946.704 C 1372.692 946.512 1373.2147 946.416 1373.78 946.416 C 1374.3453 946.416 1374.8653 946.512 1375.34 946.704 C 1375.8147 946.896 1376.2253 947.1653 1376.572 947.512 C 1376.9187 947.8587 1377.188 948.2693 1377.38 948.744 C 1377.572 949.2187 1377.668 949.7387 1377.668 950.304 C 1377.668 950.8693 1377.572 951.3893 1377.38 951.864 C 1377.188 952.3387 1376.9187 952.7493 1376.572 953.096 C 1376.2253 953.4427 1375.8147 953.712 1375.34 953.904 C 1374.8653 954.096 1374.3453 954.192 1373.78 954.192 C 1373.2147 954.192 1372.692 954.096 1372.212 953.904 C 1371.732 953.712 1371.3213 953.4427 1370.98 953.096 C 1370.6387 952.7493 1370.372 952.3387 1370.18 951.864 C 1369.988 951.3893 1369.892 950.8693 1369.892 950.304 Z M 1370.852 950.304 C 1370.852 950.72 1370.9187 951.112 1371.052 951.48 C 1371.1853 951.848 1371.38 952.168 1371.636 952.44 C 1371.892 952.712 1372.2013 952.928 1372.564 953.088 C 1372.9267 953.248 1373.332 953.328 1373.78 953.328 C 1374.228 953.328 1374.6333 953.248 1374.996 953.088 C 1375.3587 952.928 1375.668 952.712 1375.924 952.44 C 1376.18 952.168 1376.3747 951.848 1376.508 951.48 C 1376.6413 951.112 1376.708 950.72 1376.708 950.304 C 1376.708 949.888 1376.6413 949.496 1376.508 949.128 C 1376.3747 948.76 1376.18 948.44 1375.924 948.168 C 1375.668 947.896 1375.3587 947.68 1374.996 947.52 C 1374.6333 947.36 1374.228 947.28 1373.78 947.28 C 1373.332 947.28 1372.9267 947.36 1372.564 947.52 C 1372.2013 947.68 1371.892 947.896 1371.636 948.168 C 1371.38 948.44 1371.1853 948.76 1371.052 949.128 C 1370.9187 949.496 1370.852 949.888 1370.852 950.304 Z" fill="#5eb345"/>
        </g>
        <g id="Graphic_83">
          <path d="M 1383.428 947.472 L 1381.316 947.472 L 1381.316 952.288 C 1381.316 952.6187 1381.4067 952.8747 1381.588 953.056 C 1381.7693 953.2373 1382.02 953.328 1382.34 953.328 C 1382.5213 953.328 1382.7053 953.304 1382.892 953.256 C 1383.0787 953.208 1383.2573 953.1467 1383.428 953.072 L 1383.508 953.936 C 1383.3267 954 1383.1187 954.0587 1382.884 954.112 C 1382.6493 954.1653 1382.4413 954.192 1382.26 954.192 C 1381.9187 954.192 1381.6253 954.1413 1381.38 954.04 C 1381.1347 953.9387 1380.9373 953.8027 1380.788 953.632 C 1380.6387 953.4613 1380.5293 953.2613 1380.46 953.032 C 1380.3907 952.8027 1380.356 952.5547 1380.356 952.288 L 1380.356 947.472 L 1378.756 947.472 L 1378.756 946.608 L 1380.356 946.608 L 1380.356 944.48 L 1381.316 944.48 L 1381.316 946.608 L 1383.428 946.608 Z" fill="#5eb345"/>
        </g>
        <g id="Graphic_84">
          <path d="M 1385.316 946.608 L 1386.276 946.608 L 1386.276 954 L 1385.316 954 Z M 1385.076 943.68 C 1385.076 943.4773 1385.1453 943.3067 1385.284 943.168 C 1385.4227 943.0293 1385.5933 942.96 1385.796 942.96 C 1385.9987 942.96 1386.1693 943.0293 1386.308 943.168 C 1386.4467 943.3067 1386.516 943.4773 1386.516 943.68 C 1386.516 943.8827 1386.4467 944.0533 1386.308 944.192 C 1386.1693 944.3307 1385.9987 944.4 1385.796 944.4 C 1385.5933 944.4 1385.4227 944.3307 1385.284 944.192 C 1385.1453 944.0533 1385.076 943.8827 1385.076 943.68 Z" fill="#5eb345"/>
        </g>
        <g id="Graphic_85">
          <path d="M 1389.54 947.472 L 1388.004 947.472 L 1388.004 946.608 L 1389.54 946.608 L 1389.54 944.192 C 1389.54 943.712 1389.612 943.3147 1389.756 943 C 1389.9 942.6853 1390.0787 942.432 1390.292 942.24 C 1390.5053 942.048 1390.7427 941.912 1391.004 941.832 C 1391.2653 941.752 1391.5133 941.712 1391.748 941.712 C 1392.196 941.712 1392.564 941.776 1392.852 941.904 L 1392.66 942.736 C 1392.4467 942.6293 1392.1587 942.576 1391.796 942.576 C 1390.932 942.576 1390.5 943.232 1390.5 944.544 L 1390.5 946.608 L 1392.228 946.608 L 1392.228 947.472 L 1390.5 947.472 L 1390.5 954 L 1389.54 954 Z" fill="#5eb345"/>
        </g>
        <g id="Graphic_86">
          <path d="M 1395.812 956.288 C 1395.6307 956.768 1395.38 957.1467 1395.06 957.424 C 1394.74 957.7013 1394.3133 957.84 1393.78 957.84 C 1393.62 957.84 1393.46 957.8267 1393.3 957.8 C 1393.14 957.7733 1392.9853 957.7387 1392.836 957.696 L 1392.932 956.8 C 1393.0707 956.8427 1393.212 956.8827 1393.356 956.92 C 1393.5 956.9573 1393.6467 956.976 1393.796 956.976 C 1393.9667 956.976 1394.1187 956.9387 1394.252 956.864 C 1394.3853 956.7893 1394.5 956.6933 1394.596 956.576 C 1394.692 956.4587 1394.7747 956.328 1394.844 956.184 C 1394.9133 956.04 1394.9747 955.8933 1395.028 955.744 L 1395.7 954.032 L 1392.692 946.608 L 1393.764 946.608 L 1396.212 952.832 L 1398.596 946.608 L 1399.62 946.608 Z" fill="#5eb345"/>
        </g>
      </g>
    </g>
  </g>
</svg>
