<?xml version="1.0" encoding="UTF-8" standalone="no"?>
<!DOCTYPE svg PUBLIC "-//W3C//DTD SVG 1.1//EN" "http://www.w3.org/Graphics/SVG/1.1/DTD/svg11.dtd">
<svg width="100%" height="100%" viewBox="0 0 2134 477" version="1.1" xmlns="http://www.w3.org/2000/svg" xmlns:xlink="http://www.w3.org/1999/xlink" xml:space="preserve" xmlns:serif="http://www.serif.com/" style="fill-rule:evenodd;clip-rule:evenodd;stroke-linejoin:round;stroke-miterlimit:2;">
    <g id="OpenStuder" transform="matrix(1,0,0,0.223396,1.13687e-13,0)">
        <rect x="0" y="0" width="2133.33" height="2133.33" style="fill:none;"/>
        <g transform="matrix(1.36576,0,0,6.11364,-2432.75,3574.74)">
            <g transform="matrix(310.909,0,0,310.909,1819.17,-337.179)">
                <path d="M0.25,-0.08C0.185,-0.08 0.125,-0.14 0.125,-0.225C0.125,-0.31 0.185,-0.37 0.25,-0.37C0.315,-0.37 0.375,-0.31 0.375,-0.225C0.375,-0.14 0.315,-0.08 0.25,-0.08ZM0.25,0.005C0.37,0.005 0.465,-0.09 0.465,-0.225C0.465,-0.36 0.37,-0.455 0.25,-0.455C0.13,-0.455 0.035,-0.36 0.035,-0.225C0.035,-0.09 0.13,0.005 0.25,0.005Z" style="fill:rgb(84,156,181);fill-rule:nonzero;"/>
            </g>
            <g transform="matrix(310.909,0,0,310.909,1974.62,-337.179)">
                <path d="M0.06,0.16L0.15,0.16L0.15,-0.045C0.159,-0.036 0.169,-0.027 0.181,-0.02C0.202,-0.007 0.232,0.005 0.275,0.005C0.395,0.005 0.49,-0.09 0.49,-0.225C0.49,-0.36 0.395,-0.455 0.275,-0.455C0.23,-0.455 0.197,-0.442 0.176,-0.43C0.164,-0.423 0.154,-0.414 0.145,-0.405L0.125,-0.45L0.06,-0.45L0.06,0.16ZM0.27,-0.08C0.201,-0.08 0.14,-0.14 0.14,-0.225C0.14,-0.31 0.201,-0.37 0.27,-0.37C0.339,-0.37 0.4,-0.31 0.4,-0.225C0.4,-0.14 0.339,-0.08 0.27,-0.08Z" style="fill:rgb(84,156,181);fill-rule:nonzero;"/>
            </g>
            <g transform="matrix(310.909,0,0,310.909,2137.85,-337.179)">
                <path d="M0.35,-0.13C0.335,-0.11 0.305,-0.08 0.25,-0.08C0.185,-0.08 0.135,-0.129 0.13,-0.185L0.45,-0.185L0.452,-0.197C0.453,-0.204 0.455,-0.214 0.455,-0.225C0.455,-0.36 0.361,-0.455 0.245,-0.455C0.129,-0.455 0.035,-0.36 0.035,-0.225C0.035,-0.09 0.13,0.005 0.25,0.005C0.355,0.005 0.416,-0.055 0.445,-0.13L0.35,-0.13ZM0.13,-0.26C0.141,-0.325 0.185,-0.37 0.245,-0.37C0.316,-0.37 0.359,-0.325 0.37,-0.26L0.13,-0.26Z" style="fill:rgb(84,156,181);fill-rule:nonzero;"/>
            </g>
            <g transform="matrix(310.909,0,0,310.909,2290.2,-337.179)">
                <path d="M0.06,-0L0.15,-0L0.15,-0.26C0.15,-0.319 0.199,-0.37 0.26,-0.37C0.316,-0.37 0.365,-0.319 0.365,-0.26L0.365,-0L0.455,-0L0.455,-0.26C0.455,-0.375 0.375,-0.455 0.275,-0.455C0.23,-0.455 0.197,-0.442 0.176,-0.43C0.164,-0.423 0.154,-0.414 0.145,-0.405L0.125,-0.45L0.06,-0.45L0.06,-0Z" style="fill:rgb(84,156,181);fill-rule:nonzero;"/>
            </g>
            <g transform="matrix(310.909,0,0,310.909,2448.76,-337.179)">
                <path d="M0.16,-0.15C0.163,-0.135 0.169,-0.123 0.179,-0.114C0.189,-0.105 0.203,-0.1 0.22,-0.1C0.237,-0.1 0.251,-0.104 0.261,-0.113C0.27,-0.121 0.275,-0.13 0.275,-0.14C0.275,-0.148 0.269,-0.155 0.258,-0.16C0.246,-0.165 0.231,-0.17 0.214,-0.175C0.197,-0.18 0.178,-0.185 0.158,-0.192C0.137,-0.199 0.118,-0.208 0.101,-0.219C0.084,-0.23 0.069,-0.244 0.058,-0.262C0.046,-0.28 0.04,-0.303 0.04,-0.33C0.04,-0.349 0.044,-0.367 0.052,-0.384C0.06,-0.401 0.072,-0.415 0.087,-0.428C0.101,-0.441 0.12,-0.451 0.142,-0.459C0.163,-0.466 0.188,-0.47 0.215,-0.47C0.275,-0.47 0.321,-0.457 0.352,-0.43C0.383,-0.403 0.403,-0.37 0.41,-0.33L0.28,-0.32C0.277,-0.33 0.271,-0.339 0.262,-0.348C0.253,-0.356 0.24,-0.36 0.225,-0.36C0.21,-0.36 0.198,-0.357 0.191,-0.35C0.184,-0.343 0.18,-0.335 0.18,-0.325C0.18,-0.316 0.186,-0.31 0.198,-0.305C0.209,-0.3 0.224,-0.296 0.241,-0.291C0.258,-0.286 0.277,-0.28 0.298,-0.273C0.318,-0.266 0.337,-0.258 0.354,-0.247C0.371,-0.236 0.386,-0.221 0.398,-0.203C0.409,-0.185 0.415,-0.162 0.415,-0.135C0.415,-0.116 0.411,-0.098 0.403,-0.081C0.394,-0.064 0.382,-0.048 0.366,-0.035C0.35,-0.021 0.331,-0.01 0.308,-0.002C0.285,0.006 0.259,0.01 0.23,0.01C0.167,0.01 0.12,-0.004 0.089,-0.031C0.057,-0.058 0.037,-0.095 0.03,-0.14L0.16,-0.15Z" style="fill:rgb(84,156,181);fill-rule:nonzero;"/>
            </g>
            <g transform="matrix(310.909,0,0,310.909,2587.11,-337.179)">
                <path d="M0.09,-0.335L0.02,-0.335L0.02,-0.45L0.055,-0.45C0.092,-0.45 0.11,-0.468 0.11,-0.505L0.11,-0.57L0.225,-0.57L0.225,-0.46L0.32,-0.46L0.32,-0.335L0.225,-0.335L0.225,-0.185C0.225,-0.165 0.231,-0.149 0.242,-0.138C0.253,-0.126 0.268,-0.12 0.285,-0.12C0.29,-0.12 0.295,-0.12 0.299,-0.121C0.303,-0.121 0.307,-0.121 0.31,-0.122C0.313,-0.123 0.317,-0.124 0.32,-0.125L0.32,-0.005C0.315,-0.003 0.309,-0.001 0.302,-0C0.289,0.003 0.273,0.005 0.255,0.005C0.202,0.005 0.162,-0.01 0.133,-0.039C0.104,-0.068 0.09,-0.11 0.09,-0.165L0.09,-0.335Z" style="fill:rgb(84,156,181);fill-rule:nonzero;"/>
            </g>
            <g transform="matrix(310.909,0,0,310.909,2699.04,-337.179)">
                <path d="M0.23,0.005C0.203,0.005 0.178,0 0.155,-0.009C0.132,-0.017 0.113,-0.031 0.097,-0.048C0.08,-0.065 0.068,-0.085 0.059,-0.109C0.049,-0.133 0.045,-0.16 0.045,-0.19L0.045,-0.46L0.18,-0.46L0.18,-0.215C0.18,-0.185 0.188,-0.162 0.204,-0.145C0.219,-0.128 0.24,-0.12 0.265,-0.12C0.29,-0.12 0.311,-0.128 0.327,-0.145C0.342,-0.162 0.35,-0.185 0.35,-0.215L0.35,-0.46L0.485,-0.46L0.485,-0L0.385,-0L0.365,-0.045C0.354,-0.036 0.341,-0.027 0.327,-0.02C0.315,-0.013 0.301,-0.008 0.285,-0.003C0.268,0.003 0.25,0.005 0.23,0.005Z" style="fill:rgb(84,156,181);fill-rule:nonzero;"/>
            </g>
            <g transform="matrix(310.909,0,0,310.909,2865.38,-337.179)">
                <path d="M0.245,0.005C0.216,0.005 0.189,-0.001 0.163,-0.013C0.137,-0.024 0.114,-0.041 0.095,-0.062C0.075,-0.083 0.059,-0.107 0.048,-0.136C0.036,-0.165 0.03,-0.196 0.03,-0.23C0.03,-0.264 0.036,-0.295 0.048,-0.324C0.059,-0.353 0.075,-0.378 0.095,-0.399C0.114,-0.42 0.137,-0.436 0.163,-0.448C0.189,-0.459 0.216,-0.465 0.245,-0.465C0.262,-0.465 0.278,-0.463 0.293,-0.459C0.307,-0.455 0.319,-0.45 0.329,-0.445C0.341,-0.439 0.351,-0.432 0.36,-0.425L0.36,-0.63L0.495,-0.63L0.495,-0L0.395,-0L0.375,-0.045C0.364,-0.036 0.353,-0.027 0.34,-0.02C0.329,-0.013 0.315,-0.008 0.299,-0.003C0.283,0.003 0.265,0.005 0.245,0.005ZM0.165,-0.23C0.165,-0.197 0.175,-0.171 0.194,-0.151C0.213,-0.13 0.237,-0.12 0.265,-0.12C0.293,-0.12 0.317,-0.13 0.336,-0.151C0.355,-0.171 0.365,-0.197 0.365,-0.23C0.365,-0.263 0.355,-0.289 0.336,-0.31C0.317,-0.33 0.293,-0.34 0.265,-0.34C0.237,-0.34 0.213,-0.33 0.194,-0.31C0.175,-0.289 0.165,-0.263 0.165,-0.23Z" style="fill:rgb(84,156,181);fill-rule:nonzero;"/>
            </g>
            <g transform="matrix(310.909,0,0,310.909,3034.82,-337.179)">
                <path d="M0.475,-0.135C0.469,-0.116 0.46,-0.098 0.448,-0.081C0.436,-0.064 0.421,-0.048 0.403,-0.035C0.385,-0.021 0.364,-0.01 0.341,-0.002C0.317,0.006 0.29,0.01 0.26,0.01C0.229,0.01 0.199,0.004 0.172,-0.009C0.144,-0.021 0.12,-0.038 0.099,-0.06C0.078,-0.081 0.061,-0.107 0.049,-0.136C0.036,-0.165 0.03,-0.196 0.03,-0.23C0.03,-0.264 0.036,-0.296 0.049,-0.325C0.061,-0.354 0.078,-0.379 0.099,-0.401C0.12,-0.422 0.145,-0.439 0.174,-0.452C0.202,-0.464 0.232,-0.47 0.265,-0.47C0.296,-0.47 0.326,-0.464 0.353,-0.453C0.38,-0.442 0.404,-0.426 0.425,-0.405C0.445,-0.384 0.461,-0.358 0.473,-0.329C0.484,-0.299 0.49,-0.266 0.49,-0.23C0.49,-0.225 0.49,-0.22 0.489,-0.215L0.485,-0.185L0.17,-0.185C0.175,-0.168 0.186,-0.152 0.203,-0.137C0.219,-0.122 0.24,-0.115 0.265,-0.115C0.278,-0.115 0.289,-0.117 0.298,-0.12C0.307,-0.123 0.314,-0.126 0.319,-0.13C0.326,-0.134 0.331,-0.139 0.335,-0.145L0.475,-0.135ZM0.265,-0.345C0.24,-0.345 0.219,-0.338 0.203,-0.323C0.186,-0.308 0.175,-0.29 0.17,-0.27L0.36,-0.27C0.355,-0.29 0.344,-0.308 0.328,-0.323C0.311,-0.338 0.29,-0.345 0.265,-0.345Z" style="fill:rgb(84,156,181);fill-rule:nonzero;"/>
            </g>
            <g transform="matrix(310.909,0,0,310.909,3194.94,-337.179)">
                <path d="M0.28,-0.465C0.286,-0.465 0.292,-0.465 0.297,-0.464C0.302,-0.463 0.306,-0.463 0.309,-0.462C0.313,-0.461 0.317,-0.461 0.32,-0.46L0.32,-0.32C0.316,-0.321 0.311,-0.323 0.306,-0.325C0.301,-0.326 0.296,-0.328 0.29,-0.329C0.284,-0.33 0.277,-0.33 0.27,-0.33C0.245,-0.33 0.224,-0.322 0.209,-0.305C0.193,-0.288 0.185,-0.265 0.185,-0.235L0.185,-0L0.05,-0L0.05,-0.46L0.15,-0.46L0.17,-0.41C0.178,-0.42 0.188,-0.429 0.199,-0.437C0.208,-0.444 0.22,-0.451 0.234,-0.457C0.247,-0.462 0.263,-0.465 0.28,-0.465Z" style="fill:rgb(84,156,181);fill-rule:nonzero;"/>
            </g>
        </g>
    </g>
</svg>
