<?xml version="1.0" encoding="UTF-8" standalone="no"?>
<!DOCTYPE svg PUBLIC "-//W3C//DTD SVG 1.1//EN" "http://www.w3.org/Graphics/SVG/1.1/DTD/svg11.dtd">
<svg width="100%" height="100%" viewBox="0 0 1216 506" version="1.1" xmlns="http://www.w3.org/2000/svg" xmlns:xlink="http://www.w3.org/1999/xlink" xml:space="preserve" xmlns:serif="http://www.serif.com/" style="fill-rule:evenodd;clip-rule:evenodd;stroke-linejoin:round;stroke-miterlimit:2;">
    <g transform="matrix(1,0,0,1,-319,-1329)">
        <g id="UnderConstruction" transform="matrix(0.612928,0,0,0.420429,123.135,769.97)">
            <rect x="319.555" y="1329.66" width="1983.55" height="1202.51" style="fill:none;"/>
            <g transform="matrix(15.2653,0,0,22.2547,299.814,1327.89)">
                <path d="M76.4,9.5C75.7,10.4 75.1,11.2 74.6,12C73.2,14.2 72.4,16.6 71.9,19.1C71.7,19.9 71.4,20.2 70.6,20.2C68.7,20.1 66.9,20.2 65,20.4C66.5,20.9 67.9,21.4 69.4,22C72.1,23 71.6,22.2 71.6,25.1L71.6,26.9C71.2,26.8 70.9,26.7 70.6,26.6C64.9,24.5 59.2,22.4 53.4,20.4C52.9,20.2 52.3,20.1 51.8,20.1L28.7,20.1C27.6,20.1 27.6,20.1 27.6,21.3C27.6,21.8 27.4,22 26.9,22.1C25.4,22.2 25.1,21.9 25.1,20.4L25.1,9.1C25.1,7.4 25.7,7.5 27,7.6C27.7,7.6 27.6,8.3 27.5,8.7C27.5,9.4 27.7,9.5 28.4,9.5L51.9,9.5C59.7,9.5 67.5,9.5 75.4,9.4C75.6,9.4 75.9,9.4 76.4,9.5Z" style="fill:rgb(63,166,82);fill-rule:nonzero;"/>
                <path d="M100.4,27.8L88.1,27.8C87,27.8 86.9,27.7 86.9,26.6L86.9,18.3C86.9,17.2 87,17.1 88.1,17.1L100.1,17.1C100.7,17.1 101.1,16.9 101.4,16.5C103.5,13.9 105.6,11.3 107.7,8.6C108.1,8.1 108.5,7.9 109.1,7.9L112.9,7.9C113.9,7.9 114,8 114,9L114,16.3C114,16.8 114.2,17 114.8,17L117.1,17C117.7,17 117.9,17.2 117.9,17.8L117.9,20.7C117.9,21.3 117.6,21.5 117,21.5L114.9,21.5C114.1,21.4 113.9,21.8 114,22.5L114,26.6C114,27.4 113.7,27.6 113,27.6C108.8,27.8 104.6,27.8 100.4,27.8ZM109.1,14.5L109.5,14.5C109.8,14.2 110.2,13.8 110.3,13.5C110.4,12.9 110,12.5 109.4,12.5C108.8,12.5 108.4,12.9 108.4,13.5C108.4,13.8 108.8,14.1 109.1,14.5Z" style="fill:rgb(1,66,137);fill-rule:nonzero;"/>
                <path d="M71,31.5L76.1,31.5C76.8,31.5 77.1,31.8 77.1,32.4L77.1,32.9C77.1,34.7 76.9,34.5 78.6,34.5C80.7,34.5 80.7,34.5 80.8,32.4C80.8,31.7 81.1,31.5 81.8,31.5L110.7,31.5C111.4,31.5 111.6,31.8 111.6,32.5L111.6,38.8C111.6,39.1 111.4,39.6 111.3,39.6C110.9,39.6 110.4,39.6 110.2,39.3C109.4,38.6 108.7,37.8 107.9,37.1C107.6,36.8 107,36.5 106.6,36.5L85.9,36.5C85.5,36.5 85,36.8 84.6,37C84.5,37.1 84.4,37.2 84.3,37.3C82.9,39.3 81.1,39.7 78.7,39.7C76.7,39.7 75.1,39.3 73.9,37.6C73.3,36.7 72.4,36.5 71.3,36.5C69.6,36.4 68.4,36.9 67.4,38.2C67.1,38.6 66.7,39 66.3,39.3C66,39.5 65.5,39.6 65.2,39.6C65,39.6 64.8,39 64.8,38.7L64.8,32.5C64.8,31.7 65.1,31.4 65.9,31.4C67.6,31.6 69.3,31.5 71,31.5ZM79.7,36.1L77.7,36.1C76.9,36.1 77.1,36.7 77.1,37.1C77.1,37.5 77,38 77.7,38L80.1,38C80.7,38 80.8,37.8 80.8,37.2C80.8,36.1 80.8,36.1 79.7,36.1Z" style="fill:rgb(63,166,82);fill-rule:nonzero;"/>
                <path d="M38.2,22.4L43.4,22.4C44.7,22.4 45.2,22.8 45.2,24.1L45.2,33.4C45.2,33.8 45,34.2 44.8,34.5C43.2,36.4 41.5,38.3 39.9,40.2C39.6,40.5 39.2,40.7 38.8,40.8C35.9,40.9 33.1,40.9 30.2,40.9C28.8,40.9 28.2,40.2 28.5,38.8C28.6,38.6 28.9,38.3 29.2,38.2C29.9,37.9 30.3,37.2 30,36.5C29.9,36.3 29.5,36.2 29.2,36.2C28.6,36.2 28.4,36 28.5,35.4L28.5,33.4C28.5,32.9 28.7,32.7 29.2,32.6C30.9,32.5 30.9,32.5 31.1,30.8C31.3,29.1 31.6,27.4 31.8,25.7C31.9,25.1 31.7,24.9 31.1,24.9L30.7,24.9C30.3,24.8 29.7,25.2 29.5,24.5C29.3,23.8 29.9,22.9 30.6,22.8C31.4,22.7 32.3,22.6 33.1,22.6L38.3,22.6C38.2,22.5 38.2,22.5 38.2,22.4ZM36.5,24.9L34.1,24.9C33.6,24.9 33.3,25.1 33.2,25.6C33,27.6 32.7,29.5 32.5,31.5C32.4,32.2 32.7,32.3 33.3,32C34.7,31.2 36.1,30.4 37.5,29.7C40,28.3 39.6,29 39.6,26L39.6,25.8C39.7,25.2 39.3,25 38.7,25C38.1,25 37.3,24.9 36.5,24.9Z" style="fill:rgb(63,166,82);fill-rule:nonzero;"/>
                <path d="M86.3,18.8L86.3,26.4C86.3,27.8 86,28.1 84.6,28.1L73.8,28.1C72.7,28.1 72.3,27.8 72.3,26.9C72,22.4 72.3,17.9 74.5,13.8C75.2,12.5 76.2,11.3 77.2,10.1C77.5,9.7 78.2,9.5 78.8,9.5C80.8,9.4 82.7,9.5 84.7,9.5C85.9,9.5 86.2,9.8 86.2,11C86.3,13.6 86.3,16.2 86.3,18.8ZM74.4,20.8L74.7,20.8C77.7,19.5 80.6,18.3 83.6,17C83.8,16.9 84,16.5 84,16.2C84.1,15 84.1,13.7 84.2,12.5C84.3,11.7 83.9,11.4 83.2,11.5C82.1,11.6 80.9,11.6 79.8,11.5C78.7,11.4 78,11.9 77.5,12.7C76.3,14.5 75.4,16.6 74.9,18.7C74.7,19.4 74.6,20.1 74.4,20.8Z" style="fill:rgb(63,166,82);fill-rule:nonzero;"/>
                <path d="M64,30.7L47.5,30.7C46.4,30.7 46.3,30.6 46.3,29.5L46.3,24C46.3,23.3 46.5,23 47.3,23L57.9,23C58.2,23 58.5,23 58.8,23.2C60.7,23.9 62.6,24.7 64.4,25.5C64.7,25.6 65,26.1 65.1,26.5C65.2,27.5 65.1,28.6 65.1,29.6C65.1,30.6 64.9,30.7 64,30.7Z" style="fill:rgb(1,66,137);fill-rule:nonzero;"/>
                <path d="M106.2,9.5C105.6,10.3 105.1,10.9 104.6,11.6C103.6,12.9 102.5,14.1 101.5,15.4C100.9,16.3 100.2,16.6 99.1,16.5L88,16.5C87.3,16.5 87.1,16.2 87.1,15.6L87.1,9.5L106.2,9.5Z" style="fill:rgb(63,166,82);fill-rule:nonzero;"/>
                <path d="M53.7,31.5L60,31.5C60.7,31.5 61,31.7 61,32.5L61,38.8C61,39.1 60.8,39.7 60.6,39.7C60.2,39.7 59.7,39.6 59.4,39.4C58.6,38.7 58,37.9 57.2,37.2C56.9,36.9 56.4,36.7 56,36.7L47.3,36.7C46.3,36.7 46.2,36.6 46.2,35.6L46.2,32.5C46.2,31.9 46.5,31.6 47.1,31.6C49.3,31.5 51.5,31.5 53.7,31.5Z" style="fill:rgb(63,166,82);fill-rule:nonzero;"/>
                <path d="M78.8,28.5L106.5,28.5C106.8,28.5 107.5,28.7 107.5,28.8C107.6,29.4 107.5,30.1 107.4,30.7C107.4,30.8 106.8,30.9 106.4,30.9L78.8,30.9C77.8,30.9 77.8,30.9 77.8,29.7C77.8,28.9 77.9,28.5 78.8,28.5Z" style="fill:rgb(1,66,137);fill-rule:nonzero;"/>
                <path d="M15,14.5L15,18.8C15,20.4 14,21.6 12.5,21.6C11,21.7 9.9,20.6 9.8,18.9C9.7,15.9 9.7,13 9.8,10C9.8,8.4 11,7.3 12.4,7.4C13.8,7.4 14.9,8.6 14.9,10.2C15,11.6 15,13 15,14.5Z" style="fill:rgb(63,166,82);fill-rule:nonzero;"/>
                <path d="M10.7,21.8C11.4,21.8 11.7,22.1 11.7,22.7L11.7,27.8C11.7,28.3 11.8,28.7 12.5,28.7C13.2,28.7 13.2,28.3 13.2,27.8L13.2,22.7C13.2,22.1 13.4,21.8 14.1,21.8C14.1,22.1 14.2,22.4 14.2,22.8L14.2,29C14.2,29.4 14.3,29.9 14.5,30.3C15.6,32.4 15,33.6 13.6,34.8C13.3,35 13.2,35.3 13,35.6C12.7,36 12.3,36.4 12,36.8C11.6,37.2 11.3,37.6 11.6,38.1C11.8,38.4 12.3,38.7 12.5,38.7C12.9,38.6 13.1,38.1 13.5,37.8C13.8,37.6 14,37.4 14.3,37.1C14.4,37.4 14.7,37.8 14.7,38.1C14.6,39 13.8,39.8 12.9,39.9C11.9,40 10.9,39.5 10.5,38.6C10.1,37.7 10.3,36.7 11,36C11.3,35.7 11.6,35.5 11.9,35.2C11.6,34.9 11.4,34.7 11.1,34.5C9.7,33.1 9.6,31.9 10.6,30.1C10.8,29.8 10.8,29.4 10.8,29.1L10.8,22.8C10.7,22.4 10.7,22.1 10.7,21.8Z" style="fill:rgb(1,66,137);fill-rule:nonzero;"/>
                <path d="M118.8,9.3L121.9,9.3C122.5,9.3 122.8,9.5 122.8,10.2L122.8,13.6C122.8,14.3 122.5,14.5 121.9,14.5L118.3,14.5C117.7,14.5 117.4,14.7 117.4,15.4C117.5,16.7 117.5,16.5 116.3,16.5C114.7,16.6 114.7,16.6 114.7,14.9L114.7,10.6C114.7,9.4 114.7,9.4 116,9.4C116.9,9.3 117.9,9.3 118.8,9.3Z" style="fill:rgb(63,166,82);fill-rule:nonzero;"/>
                <path d="M82.4,42.2C82.4,39.8 84.4,37.7 86.9,37.7C89.4,37.7 91.4,39.7 91.4,42.2C91.4,44.6 89.4,46.7 86.9,46.7C84.5,46.8 82.4,44.7 82.4,42.2ZM86.9,44.8C88.3,44.8 89.4,43.7 89.4,42.2C89.4,40.8 88.3,39.7 86.9,39.7C85.4,39.7 84.3,40.7 84.3,42.2C84.4,43.6 85.5,44.8 86.9,44.8Z" style="fill:rgb(1,66,137);fill-rule:nonzero;"/>
                <path d="M66.6,42.1C66.6,39.6 68.7,37.7 71.1,37.7C73.6,37.7 75.6,39.8 75.5,42.3C75.5,44.7 73.4,46.8 71,46.7C68.5,46.7 66.5,44.7 66.6,42.1ZM71.1,44.8C72.5,44.8 73.6,43.6 73.6,42.2C73.6,40.8 72.5,39.8 71.1,39.7C69.6,39.7 68.6,40.8 68.6,42.2C68.5,43.7 69.6,44.8 71.1,44.8Z" style="fill:rgb(1,66,137);fill-rule:nonzero;"/>
                <path d="M101.1,42.3C101.1,44.8 99.1,46.8 96.7,46.8C94.3,46.8 92.2,44.7 92.2,42.3C92.2,39.8 94.2,37.8 96.6,37.8C99,37.7 101.1,39.7 101.1,42.3ZM96.6,39.7C95.1,39.7 94,40.8 94,42.2C94,43.6 95.1,44.7 96.6,44.7C98,44.7 99.1,43.5 99.1,42.1C99.1,40.8 98,39.7 96.6,39.7Z" style="fill:rgb(1,66,137);fill-rule:nonzero;"/>
                <path d="M50.3,42.1C50.4,39.6 52.4,37.7 54.8,37.7C57.3,37.7 59.3,39.8 59.2,42.3C59.2,44.7 57,46.8 54.7,46.7C52.3,46.7 50.3,44.6 50.3,42.1ZM54.8,44.7C56.2,44.7 57.3,43.6 57.3,42.2C57.3,40.8 56.1,39.6 54.7,39.7C53.3,39.7 52.2,40.8 52.2,42.2C52.3,43.7 53.4,44.8 54.8,44.7Z" style="fill:rgb(1,66,137);fill-rule:nonzero;"/>
                <path d="M110.2,42.3C110.2,44.8 108.2,46.8 105.8,46.8C103.4,46.8 101.3,44.7 101.3,42.3C101.3,39.9 103.3,37.8 105.8,37.8C108.3,37.7 110.3,39.8 110.2,42.3ZM105.8,44.7C107.2,44.7 108.4,43.6 108.4,42.2C108.4,40.8 107.3,39.7 105.8,39.7C104.4,39.7 103.3,40.8 103.3,42.2C103.2,43.6 104.4,44.7 105.8,44.7Z" style="fill:rgb(1,66,137);fill-rule:nonzero;"/>
                <path d="M40.7,42.3C40.7,39.8 42.7,37.8 45.2,37.8C47.6,37.8 49.7,39.9 49.7,42.3C49.7,44.7 47.6,46.8 45.3,46.8C42.7,46.8 40.7,44.7 40.7,42.3ZM45.1,44.8C46.5,44.8 47.7,43.6 47.7,42.3C47.7,41 46.6,39.8 45.2,39.8C43.7,39.8 42.6,40.8 42.6,42.3C42.6,43.6 43.7,44.7 45.1,44.8Z" style="fill:rgb(1,66,137);fill-rule:nonzero;"/>
                <path d="M24.3,9.1L24.3,20.3C24.3,20.9 24.2,21.2 23.5,21.2C22.5,21.2 22.1,21 22.1,20.3L22.1,9.6C22.1,8.5 23.2,7.9 24.1,8.4C24.3,8.5 24.3,8.9 24.3,9.1Z" style="fill:rgb(63,166,82);fill-rule:nonzero;"/>
                <path d="M112.4,41L112.4,32.5C112.4,31.6 112.9,31.5 113.6,31.5C114.8,31.5 114.9,31.6 114.9,32.5L114.9,41C114.9,41.9 114.7,42 113.6,42C112.9,42 112.4,41.9 112.4,41Z" style="fill:rgb(63,166,82);fill-rule:nonzero;"/>
                <path d="M64.1,32.5L64.1,41C64.1,41.9 63.6,42 62.9,42C61.7,42 61.6,41.9 61.6,41L61.6,32.5C61.6,31.6 61.7,31.6 62.9,31.5C63.6,31.5 64.1,31.6 64.1,32.5Z" style="fill:rgb(63,166,82);fill-rule:nonzero;"/>
                <path d="M21.2,9.8L21.2,19.6C21.2,20.2 21.1,20.6 20.3,20.6C19.2,20.6 18.9,20.4 18.9,19.6L18.9,9.9C18.9,9 19.2,8.8 20.3,8.8C21.1,8.8 21.2,9.2 21.2,9.8Z" style="fill:rgb(63,166,82);fill-rule:nonzero;"/>
                <path d="M18.2,14.7L18.2,19C18.2,19.6 18.1,20 17.3,20C16.1,20 15.9,19.9 15.8,19L15.8,10.5C15.8,9.7 16.1,9.5 17.3,9.5C18.1,9.5 18.1,9.9 18.1,10.5C18.2,11.9 18.2,13.3 18.2,14.7Z" style="fill:rgb(63,166,82);fill-rule:nonzero;"/>
                <path d="M78.9,43.5L77.2,43.5C76.7,43.5 76.3,43.5 76.3,42.8C76.3,42.2 76.5,41.9 77.1,41.9L80.5,41.9C81.1,41.9 81.4,42 81.4,42.7C81.4,43.3 81.2,43.6 80.6,43.5C80.1,43.4 79.5,43.5 78.9,43.5Z" style="fill:rgb(63,166,82);fill-rule:nonzero;"/>
                <path d="M114.2,43.6C114.7,43.6 115.1,43.5 115.5,43.6C115.7,43.7 116,44 116,44.2C116,44.4 115.7,44.7 115.5,44.7L111.8,44.7C111.6,44.7 111.3,44.4 111.3,44.2C111.3,44 111.5,43.7 111.8,43.6C112,43.5 112.3,43.6 112.5,43.5C112.7,43.4 113,43.2 113.1,42.9C113.2,42.6 113.1,42.1 113.7,42.1C114.3,42.2 114.1,42.6 114.2,43L114.2,43.6Z" style="fill:rgb(63,166,82);fill-rule:nonzero;"/>
                <path d="M62.8,44.8L61.3,44.8C60.9,44.8 60.4,44.8 60.4,44.2C60.4,43.6 60.9,43.6 61.3,43.6L61.6,43.6C62.1,43.6 62.3,43.4 62.3,42.9C62.3,42.7 62.6,42.5 62.8,42.2C63,42.4 63.3,42.6 63.3,42.8C63.3,43.4 63.6,43.6 64.2,43.5C64.4,43.5 64.6,43.4 64.7,43.5C64.9,43.7 65.2,43.9 65.2,44.1C65.2,44.3 64.9,44.6 64.7,44.6C64.1,44.8 63.4,44.8 62.8,44.8Z" style="fill:rgb(63,166,82);fill-rule:nonzero;"/>
            </g>
        </g>
    </g>
</svg>
